#!OML:ASF I:\golf\golf\golf 2\Subject 1\2002-09-07\Subject1.ASF
:FULLY-SPECIFIED
:DEGREES
278
root -6.51048 17.7894 2.72145 2.83632 45.2862 -11.9368
lowerback 2.95432 -10.1002 -10.9524
upperback -0.185512 -13.7572 -2.03582
thorax 0.197066 -6.8128 3.91742
lowerneck -9.09792 20.5951 -0.041971
upperneck 14.9507 31.013 -13.9989
head 8.43973 13.5753 -0.987418
rclavicle -1.6201e-014 3.49861e-014
rhumerus 23.924 -21.6879 -58.9728
rradius 111.583
rwrist -0.198369
rhand -60.9482 61.3536
rfingers 7.12502
rthumb -33.054 34.3648
lclavicle -1.6201e-014 3.49861e-014
lhumerus 110.159 -41.7035 41.413
lradius 38.5904
lwrist -13.1247
lhand -35.3413 -0.64931
lfingers 7.12502
lthumb -188.474 -150.839
rfemur -32.4332 18.522 22.0816
rtibia 31.53
rfoot -8.85631 16.587
rtoes 17.4366
lfemur -1.70107 13.8706 3.99932
ltibia 26.0479
lfoot -1.49234 22.9975
ltoes -34.0535
279
root -6.51061 17.7896 2.73306 2.96671 45.1461 -11.8865
lowerback 2.94489 -10.0573 -10.9205
upperback -0.244349 -13.7029 -2.08199
thorax 0.113828 -6.77921 3.86547
lowerneck -9.07229 20.598 0.168811
upperneck 14.9299 31.0183 -14.1316
head 8.484 13.5771 -1.04088
rclavicle 1.50579e-013 3.18055e-014
rhumerus 24.0711 -22.4003 -57.9312
rradius 111.697
rwrist 1.04721
rhand -61.4895 62.1738
rfingers 7.12502
rthumb -33.5687 35.2953
lclavicle 1.50579e-013 3.18055e-014
lhumerus 110.579 -41.7024 41.6296
lradius 38.9467
lwrist -13.4842
lhand -35.9335 -1.06046
lfingers 7.12502
lthumb -189.046 -151.274
rfemur -32.5459 18.6533 22.043
rtibia 31.5668
rfoot -8.80327 16.7218
rtoes 17.9025
lfemur -1.55718 13.7876 3.98101
ltibia 25.8861
lfoot -2.00083 23.0665
ltoes -32.7179
280
root -6.51193 17.7887 2.74746 3.1698 44.9588 -11.7021
lowerback 2.92282 -9.90895 -11.0106
upperback -0.376475 -13.5142 -2.29778
thorax -0.0725448 -6.6675 3.71888
lowerneck -8.24714 20.514 1.02524
upperneck 14.5356 30.773 -14.566
head 8.39448 13.5507 -1.37023
rclavicle 1.00684e-013 9.54166e-015
rhumerus 23.6453 -23.2321 -56.7717
rradius 111.912
rwrist 1.95117
rhand -61.5705 61.772
rfingers 7.12502
rthumb -33.6456 34.9103
lclavicle 1.00684e-013 9.54166e-015
lhumerus 111.155 -42.0657 41.5727
lradius 39.3407
lwrist -13.9787
lhand -36.3524 -0.956909
lfingers 7.12502
lthumb -189.45 -151.189
rfemur -32.6201 18.6511 21.9694
rtibia 31.5963
rfoot -8.70623 17.0197
rtoes 18.3715
lfemur -1.33735 13.8073 3.89282
ltibia 25.6946
lfoot -2.7342 23.0705
ltoes -30.7501
281
root -6.51279 17.7914 2.76153 3.33177 44.7987 -11.518
lowerback 2.96765 -9.80973 -11.0952
upperback -0.478929 -13.3984 -2.4683
thorax -0.243984 -6.59458 3.61908
lowerneck -7.45408 20.4335 1.55624
upperneck 13.8619 30.5132 -15.0086
head 8.16595 13.5267 -1.68821
rclavicle -5.63555e-014 -5.08889e-014
rhumerus 23.3684 -23.9313 -55.6571
rradius 112.167
rwrist 2.63287
rhand -61.4177 61.4105
rfingers 7.12502
rthumb -33.5004 34.5173
lclavicle -5.63555e-014 -5.08889e-014
lhumerus 111.727 -42.1782 41.4627
lradius 39.7744
lwrist -14.07
lhand -36.5083 -0.80875
lfingers 7.12502
lthumb -189.6 -151.047
rfemur -32.6369 18.5365 21.9371
rtibia 31.635
rfoot -8.61595 17.3788
rtoes 19.0313
lfemur -1.17428 13.7141 3.7872
ltibia 25.4676
lfoot -3.3629 23.3215
ltoes -28.6502
282
root -6.51217 17.794 2.7714 3.419 44.7099 -11.4507
lowerback 3.05377 -9.82429 -11.0763
upperback -0.536215 -13.4345 -2.49308
thorax -0.357129 -6.60472 3.60776
lowerneck -7.5816 20.4697 1.48103
upperneck 13.8202 30.5584 -14.9732
head 8.15985 13.5425 -1.65352
rclavicle 5.65542e-014 9.54166e-014
rhumerus 23.4742 -24.3925 -54.6532
rradius 112.41
rwrist 3.2726
rhand -61.4578 61.9982
rfingers 7.12502
rthumb -33.5385 35.1132
lclavicle 5.65542e-014 9.54166e-014
lhumerus 112.084 -41.9959 41.5879
lradius 40.1005
lwrist -13.9827
lhand -36.8031 -0.969548
lfingers 7.12502
lthumb -189.885 -151.222
rfemur -32.66 18.4967 21.9368
rtibia 31.6411
rfoot -8.53724 17.5406
rtoes 19.6751
lfemur -1.15205 13.3585 3.74335
ltibia 25.2862
lfoot -3.89424 23.7321
ltoes -26.8183
283
root -6.51308 17.7946 2.77982 3.56527 44.6282 -11.3868
lowerback 3.03925 -9.88731 -11.0765
upperback -0.554195 -13.5178 -2.46055
thorax -0.348654 -6.64628 3.6352
lowerneck -8.23593 20.5524 1.23213
upperneck 14.2541 30.7719 -14.7185
head 8.35398 13.5699 -1.44076
rclavicle 7.81224e-014 3.18055e-015
rhumerus 23.7923 -24.8078 -53.7981
rradius 112.629
rwrist 3.79057
rhand -61.3867 62.5845
rfingers 7.12502
rthumb -33.4709 35.6849
lclavicle 7.81224e-014 3.18055e-015
lhumerus 112.377 -41.6667 41.7273
lradius 40.3715
lwrist -13.9814
lhand -37.3047 -1.1916
lfingers 7.12502
lthumb -190.369 -151.467
rfemur -32.7433 18.5654 21.8812
rtibia 31.5859
rfoot -8.45757 17.5535
rtoes 19.8601
lfemur -1.2236 13.1744 3.69741
ltibia 25.2079
lfoot -3.71552 23.9495
ltoes -27.1145
284
root -6.51499 17.7985 2.79035 3.64431 44.5372 -11.3856
lowerback 2.99355 -9.92699 -11.0722
upperback -0.533085 -13.5623 -2.41317
thorax -0.284399 -6.67304 3.66592
lowerneck -8.77906 20.6085 0.97664
upperneck 14.567 30.933 -14.5313
head 8.49473 13.5848 -1.27087
rclavicle 1.56046e-014 2.22639e-014
rhumerus 24.1304 -25.3287 -52.9901
rradius 112.808
rwrist 4.19544
rhand -61.7039 62.8731
rfingers 7.12502
rthumb -33.7724 36.0391
lclavicle 1.56046e-014 2.22639e-014
lhumerus 112.758 -41.259 41.7039
lradius 40.7936
lwrist -13.8527
lhand -37.6921 -1.21613
lfingers 7.12502
lthumb -190.742 -151.511
rfemur -32.7705 18.6423 21.8902
rtibia 31.5003
rfoot -8.35481 17.5974
rtoes 19.9993
lfemur -1.25901 13.3006 3.71935
ltibia 25.2008
lfoot -3.42041 24.0238
ltoes -27.5258
285
root -6.51613 17.8032 2.80151 3.57641 44.4396 -11.5026
lowerback 3.00803 -9.95747 -10.9794
upperback -0.512064 -13.6014 -2.34519
thorax -0.268908 -6.69601 3.6866
lowerneck -9.03876 20.6734 0.61157
upperneck 14.4916 31.0411 -14.4553
head 8.45371 13.616 -1.18028
rclavicle 1.89839e-014 6.04305e-014
rhumerus 24.4187 -25.9183 -52.1668
rradius 113.073
rwrist 4.60313
rhand -65.205 65.5796
rfingers 7.12502
rthumb -37.0916 39.5389
lclavicle 1.89839e-014 6.04305e-014
lhumerus 113.058 -40.8604 41.7072
lradius 41.3326
lwrist -13.7158
lhand -37.9311 -0.948052
lfingers 7.12502
lthumb -190.973 -151.255
rfemur -32.7066 18.7425 22.0166
rtibia 31.4074
rfoot -8.31757 17.6223
rtoes 19.9157
lfemur -1.24828 13.4298 3.85902
ltibia 25.2364
lfoot -3.13282 24.075
ltoes -27.8526
286
root -6.51656 17.8055 2.81179 3.60756 44.3356 -11.4987
lowerback 3.01394 -9.98035 -10.9371
upperback -0.492828 -13.63 -2.33442
thorax -0.254752 -6.71225 3.67424
lowerneck -9.10268 20.7218 0.297797
upperneck 14.163 31.0732 -14.481
head 8.31287 13.6422 -1.16665
rclavicle 2.33572e-014 -1.59028e-014
rhumerus 24.5636 -26.5894 -51.3557
rradius 113.351
rwrist 5.1666
rhand -63.1996 63.8198
rfingers 7.12502
rthumb -35.1922 37.3088
lclavicle 2.33572e-014 -1.59028e-014
lhumerus 113.329 -40.5606 41.7318
lradius 41.8422
lwrist -13.877
lhand -38.2075 -0.596511
lfingers 7.12502
lthumb -191.239 -150.918
rfemur -32.6659 18.7764 22.0608
rtibia 31.3138
rfoot -8.32816 17.7027
rtoes 19.5112
lfemur -1.2496 13.445 3.89984
ltibia 25.2873
lfoot -2.51446 24.0305
ltoes -29.4399
287
root -6.51556 17.8108 2.82145 3.79116 44.2379 -11.2522
lowerback 3.08058 -9.95283 -11.0811
upperback -0.521197 -13.6083 -2.40991
thorax -0.310742 -6.6951 3.68685
lowerneck -9.05238 20.7408 0.307588
upperneck 14.0686 31.0856 -14.5349
head 8.28439 13.6552 -1.18977
rclavicle 7.17613e-014 6.36111e-015
rhumerus 24.4773 -27.1761 -50.5915
rradius 113.583
rwrist 5.65763
rhand -61.755 63.1104
rfingers 7.12502
rthumb -33.821 36.2871
lclavicle 7.17613e-014 6.36111e-015
lhumerus 113.667 -40.4726 41.7683
lradius 42.1984
lwrist -14.1791
lhand -38.538 -0.542723
lfingers 7.12502
lthumb -191.558 -150.881
rfemur -32.6138 18.6841 21.938
rtibia 31.2464
rfoot -8.23557 17.9341
rtoes 19.6989
lfemur -1.20181 13.4326 3.73406
ltibia 25.2929
lfoot -1.79703 23.9589
ltoes -31.2894
